<?xml version="1.0" encoding="UTF-8"?>
<svg id="Capa_1" data-name="Capa 1" xmlns="http://www.w3.org/2000/svg" viewBox="0 0 1350 240.51">
  <path d="M53.17,164.08h29.92c6.31,0,11.43,5.12,11.43,11.43h0c0,6.31-5.12,11.43-11.43,11.43H30.31c-6.31,0-11.43-5.12-11.43-11.43v-110.51c0-6.31,5.12-11.43,11.43-11.43h0c6.31,0,11.43,5.12,11.43,11.43v87.65c0,6.31,5.12,11.43,11.43,11.43Z"/>
  <path d="M119.67,186.94h0c-6.31,0-11.43-5.12-11.43-11.43v-110.51c0-6.31,5.12-11.43,11.43-11.43h0c6.31,0,11.43,5.12,11.43,11.43v110.51c0,6.31-5.12,11.43-11.43,11.43Z"/>
  <path d="M216.66,76.43h-33.73c-6.31,0-11.43,5.12-11.43,11.43v3.43c0,6.31,5.12,11.43,11.43,11.43h17.15c6.31,0,11.43,5.12,11.43,11.43h0c0,6.31-5.12,11.43-11.43,11.43h-17.15c-6.31,0-11.43,5.12-11.43,11.43v15.62c0,6.31,5.12,11.43,11.43,11.43h33.73c6.31,0,11.43,5.12,11.43,11.43h0c0,6.31-5.12,11.43-11.43,11.43h-56.59c-6.31,0-11.43-5.12-11.43-11.43v-110.51c0-6.31,5.12-11.43,11.43-11.43h56.59c6.31,0,11.43,5.12,11.43,11.43h0c0,6.31-5.12,11.43-11.43,11.43Z"/>
  <path d="M336.32,53.56h0c6.31,0,11.43,5.12,11.43,11.43v110.51c0,6.31-5.12,11.43-11.43,11.43h-4.61c-4.2,0-8.07-2.31-10.06-6l-32.62-60.47c-5.64-10.45-21.49-6.44-21.49,5.43v49.62c0,6.31-5.12,11.43-11.43,11.43h0c-6.31,0-11.43-5.12-11.43-11.43v-110.51c0-6.31,5.12-11.43,11.43-11.43h16.22c4.21,0,8.08,2.31,10.07,6.02l20.99,39.1c5.62,10.47,21.51,6.48,21.51-5.41v-28.28c0-6.31,5.12-11.43,11.43-11.43Z"/>
  <path d="M365.85,175.51v-7.37c0-2.63.9-5.17,2.56-7.21l53.54-65.85c6.07-7.47.76-18.64-8.87-18.64h-38.47c-6.31,0-11.43-5.12-11.43-11.43h0c0-6.31,5.12-11.43,11.43-11.43h80.79c6.31,0,11.43,5.12,11.43,11.43v7.36c0,2.63-.91,5.18-2.57,7.22l-53.67,65.84c-6.09,7.47-.77,18.66,8.86,18.66h35.57c6.31,0,11.43,5.12,11.43,11.43h0c0,6.31-5.12,11.43-11.43,11.43h-77.74c-6.31,0-11.43-5.12-11.43-11.43Z"/>
  <path d="M475.6,119.87c0-42.68,23.82-68.21,65.36-68.21s64.97,25.53,64.97,68.21c0,44.78-23.06,68.98-64.97,68.98s-65.36-24.2-65.36-68.98ZM498.47,120.64c0,32.39,12,45.35,42.3,45.35s42.3-12.96,42.3-45.35-12.39-46.11-42.3-46.11-42.3,13.34-42.3,46.11Z"/>
  <path d="M733.98,188.85c-25.44,0-43.59-10.34-51.04-27.71-3.2-7.46,2.48-15.74,10.6-15.74h3.04c4.54,0,8.45,2.85,10.28,7.01,3.62,8.2,13.7,13.57,27.13,13.57,37.35,0,37.35-34.11-4.76-34.11-63.83,0-63.83-80.22,4.95-80.22,24.05,0,39.6,9.72,45.96,28.29,2.54,7.42-2.98,15.16-10.83,15.16h-2.57c-4.99,0-9.29-3.28-10.9-8.01-2.61-7.71-9.7-12.57-23.19-12.57-36.2,0-38.68,34.49,2.1,34.49,66.12,0,66.12,79.84-.76,79.84Z"/>
  <path d="M847.54,186.94h0c-6.31,0-11.43-5.12-11.43-11.43v-87.65c0-6.31-5.12-11.43-11.43-11.43h-19.24c-6.31,0-11.43-5.12-11.43-11.43h0c0-6.31,5.12-11.43,11.43-11.43h84.22c6.31,0,11.43,5.12,11.43,11.43h0c0,6.31-5.12,11.43-11.43,11.43h-19.25c-6.31,0-11.43,5.12-11.43,11.43v87.65c0,6.31-5.12,11.43-11.43,11.43Z"/>
  <path d="M989.49,135.5v-70.5c0-6.31,5.12-11.43,11.43-11.43h0c6.31,0,11.43,5.12,11.43,11.43v70.5c0,33.54-19.44,53.35-51.64,53.35s-51.64-19.82-51.64-53.35v-70.5c0-6.31,5.12-11.43,11.43-11.43h0c6.31,0,11.43,5.12,11.43,11.43v70.5c0,20.39,9.53,30.49,28.77,30.49s28.77-10.1,28.77-30.49Z"/>
  <path d="M1081.52,53.56c73.17,0,73.17,133.38,0,133.38h-43.25c-6.31,0-11.43-5.12-11.43-11.43v-110.51c0-6.31,5.12-11.43,11.43-11.43h43.25ZM1081.52,164.08c42.68,0,42.68-87.65,0-87.65h-20.39c-6.31,0-11.43,5.12-11.43,11.43v64.78c0,6.31,5.12,11.43,11.43,11.43h20.39Z"/>
  <path d="M1168.98,186.94h0c-6.31,0-11.43-5.12-11.43-11.43v-110.51c0-6.31,5.12-11.43,11.43-11.43h0c6.31,0,11.43,5.12,11.43,11.43v110.51c0,6.31-5.12,11.43-11.43,11.43Z"/>
  <path d="M1200.8,119.87c0-42.68,23.82-68.21,65.36-68.21s64.98,25.53,64.98,68.21c0,44.78-23.06,68.98-64.98,68.98s-65.36-24.2-65.36-68.98ZM1223.66,120.64c0,32.39,12,45.35,42.3,45.35s42.3-12.96,42.3-45.35-12.39-46.11-42.3-46.11-42.3,13.34-42.3,46.11Z"/>
</svg>