<?xml version="1.0" encoding="UTF-8"?>
<svg id="Capa_1" data-name="Capa 1" xmlns="http://www.w3.org/2000/svg" viewBox="0 0 1080 782.13">
  <defs>
    <style>
      .cls-1 {
        fill: #fff;
      }
    </style>
  </defs>
  <g>
    <g>
      <path class="cls-1" d="M133.32,328.57h46.93c9.92,0,17.92,8.03,17.92,17.92h0c0,9.92-8.03,17.92-17.92,17.92h-82.8c-9.92,0-17.92-8.03-17.92-17.92v-173.35c0-9.92,8.03-17.92,17.92-17.92h0c9.92,0,17.92,8.03,17.92,17.92v137.48c0,9.92,8.03,17.92,17.92,17.92l.03.03Z"/>
      <path class="cls-1" d="M237.65,364.44h0c-9.92,0-17.92-8.03-17.92-17.92v-173.35c0-9.92,8.03-17.92,17.92-17.92h0c9.92,0,17.92,8.03,17.92,17.92v173.35c0,9.92-8.03,17.92-17.92,17.92Z"/>
      <path class="cls-1" d="M389.79,191.09h-52.9c-9.92,0-17.92,8.03-17.92,17.92v5.39c0,9.92,8.03,17.92,17.92,17.92h26.91c9.92,0,17.92,8.03,17.92,17.92h0c0,9.92-8.03,17.92-17.92,17.92h-26.91c-9.92,0-17.92,8.03-17.92,17.92v24.51c0,9.92,8.03,17.92,17.92,17.92h52.9c9.92,0,17.92,8.03,17.92,17.92h0c0,9.92-8.03,17.92-17.92,17.92h-88.77c-9.92,0-17.92-8.03-17.92-17.92v-173.35c0-9.92,8.03-17.92,17.92-17.92h88.77c9.92,0,17.92,8.03,17.92,17.92h0c0,9.92-8.03,17.92-17.92,17.92v.1Z"/>
      <path class="cls-1" d="M577.53,155.21h0c9.92,0,17.92,8.03,17.92,17.92v173.35c0,9.92-8.03,17.92-17.92,17.92h-7.24c-6.59,0-12.67-3.6-15.79-9.41l-51.18-94.85c-8.86-16.41-33.71-10.13-33.71,8.51v77.82c0,9.92-8.03,17.92-17.92,17.92h0c-9.92,0-17.92-8.03-17.92-17.92v-173.35c0-9.92,8.03-17.92,17.92-17.92h25.44c6.59,0,12.67,3.64,15.79,9.44l32.92,61.34c8.82,16.44,33.74,10.16,33.74-8.48v-44.35c0-9.92,8.03-17.92,17.92-17.92l.03-.04Z"/>
      <path class="cls-1" d="M623.83,346.52v-11.57c0-4.12,1.41-8.1,4.02-11.33l84-103.29c9.54-11.71,1.2-29.25-13.9-29.25h-60.35c-9.92,0-17.92-8.03-17.92-17.92h0c0-9.92,8.03-17.92,17.92-17.92h126.74c9.92,0,17.92,8.03,17.92,17.92v11.53c0,4.12-1.44,8.14-4.05,11.33l-84.21,103.29c-9.54,11.71-1.2,29.28,13.9,29.28h55.78c9.92,0,17.92,8.03,17.92,17.92h0c0,9.92-8.03,17.92-17.92,17.92h-121.97c-9.92,0-17.92-8.03-17.92-17.92h.03Z"/>
      <path class="cls-1" d="M796.02,259.23c0-66.94,37.35-107,102.54-107s101.92,40.06,101.92,107c0,70.23-36.18,108.2-101.92,108.2s-102.54-37.97-102.54-108.2ZM831.89,260.43c0,50.81,18.85,71.13,66.36,71.13s66.36-20.32,66.36-71.13-19.43-72.33-66.36-72.33-66.36,20.91-66.36,72.33Z"/>
    </g>
    <g>
      <path class="cls-1" d="M112.42,621.93c-39.92,0-68.38-16.24-80.09-43.46-5.01-11.71,3.88-24.68,16.61-24.68h4.77c7.14,0,13.25,4.46,16.13,10.98,5.66,12.87,21.49,21.28,42.57,21.28,58.6,0,58.6-53.52-7.48-53.52-100.13,0-100.13-125.85,7.76-125.85,37.73,0,62.13,15.24,72.09,44.39,3.98,11.64-4.67,23.79-16.99,23.79h-4.02c-7.83,0-14.59-5.15-17.1-12.56-4.09-12.08-15.21-19.7-36.39-19.7-56.78,0-60.69,54.1,3.3,54.1,103.74,0,103.74,125.26-1.2,125.26l.03-.03Z"/>
      <path class="cls-1" d="M290.58,618.95h0c-9.92,0-17.92-8.03-17.92-17.92v-137.48c0-9.92-8.03-17.92-17.92-17.92h-30.17c-9.92,0-17.92-8.03-17.92-17.92h0c0-9.92,8.03-17.92,17.92-17.92h132.13c9.92,0,17.92,8.03,17.92,17.92h0c0,9.92-8.03,17.92-17.92,17.92h-30.17c-9.92,0-17.92,8.03-17.92,17.92v137.48c0,9.92-8.03,17.92-17.92,17.92h-.1Z"/>
      <path class="cls-1" d="M513.26,538.24v-110.6c0-9.92,8.03-17.92,17.92-17.92h0c9.92,0,17.92,8.03,17.92,17.92v110.6c0,52.62-30.48,83.69-81.01,83.69s-81.01-31.1-81.01-83.69v-110.6c0-9.92,8.03-17.92,17.92-17.92h0c9.92,0,17.92,8.03,17.92,17.92v110.6c0,31.99,14.93,47.82,45.14,47.82s45.14-15.86,45.14-47.82h.07Z"/>
      <path class="cls-1" d="M657.65,409.69c114.79,0,114.79,209.23,0,209.23h-67.87c-9.92,0-17.92-8.03-17.92-17.92v-173.35c0-9.92,8.03-17.92,17.92-17.92h67.87v-.03ZM657.65,583.07c66.94,0,66.94-137.48,0-137.48h-31.99c-9.92,0-17.92,8.03-17.92,17.92v101.64c0,9.92,8.03,17.92,17.92,17.92h31.99Z"/>
      <path class="cls-1" d="M794.82,618.95h0c-9.92,0-17.92-8.03-17.92-17.92v-173.35c0-9.92,8.03-17.92,17.92-17.92h0c9.92,0,17.92,8.03,17.92,17.92v173.35c0,9.92-8.03,17.92-17.92,17.92Z"/>
      <path class="cls-1" d="M844.73,513.73c0-66.94,37.35-107,102.54-107s101.92,40.06,101.92,107c0,70.23-36.18,108.2-101.92,108.2s-102.54-37.97-102.54-108.2ZM880.6,514.9c0,50.81,18.85,71.13,66.36,71.13s66.36-20.32,66.36-71.13-19.43-72.33-66.36-72.33-66.36,20.91-66.36,72.33Z"/>
    </g>
  </g>
  <g>
    <path class="cls-1" d="M422.02,76.78c-2.09,0-3.95-.48-5.56-1.44s-2.88-2.33-3.81-4.08-1.37-3.81-1.37-6.14.45-4.39,1.37-6.14c.93-1.72,2.2-3.05,3.81-4.02,1.65-.96,3.54-1.44,5.63-1.44s3.98.48,5.49,1.44,2.68,2.23,3.5,3.78c.79,1.54,1.2,3.23,1.2,5.01v.93c0,.34,0,.69-.03,1.13h-18.57v-2.68h15.58c-.1-2.16-.82-3.88-2.2-5.11-1.37-1.24-3.09-1.82-5.11-1.82-1.34,0-2.61.31-3.74.89-1.17.58-2.09,1.48-2.81,2.61s-1.06,2.57-1.06,4.26v1.2c0,1.99.38,3.67,1.13,4.98.76,1.34,1.72,2.3,2.88,2.95,1.17.65,2.4.96,3.71.96,1.68,0,3.06-.38,4.22-1.17,1.13-.79,1.92-1.85,2.4-3.23h3.06c-.34,1.34-.96,2.54-1.82,3.64-.86,1.06-1.96,1.92-3.26,2.54s-2.85.93-4.57.93l-.07.03Z"/>
    <path class="cls-1" d="M444.64,76.78c-2.61,0-4.77-.62-6.59-1.82-1.79-1.2-2.85-3.09-3.19-5.63h3.26c.24,1.48.93,2.61,2.09,3.43,1.13.82,2.64,1.24,4.5,1.24,1.68,0,2.95-.38,3.88-1.13.93-.76,1.37-1.72,1.37-2.85,0-.86-.27-1.51-.79-1.96-.55-.45-1.54-.79-3.06-1.1-.62-.14-1.24-.27-1.85-.38-.62-.1-1.24-.21-1.85-.34-.93-.17-1.89-.48-2.85-.93-1-.45-1.82-1.1-2.47-1.96s-1-1.96-1-3.33c0-1.89.72-3.43,2.16-4.7,1.44-1.24,3.36-1.89,5.73-1.89s4.19.51,5.73,1.58c1.58,1.03,2.47,2.78,2.71,5.18h-3.19c-.14-1.48-.69-2.51-1.65-3.12-1-.62-2.23-.93-3.71-.93-1.34,0-2.47.31-3.36.96-.93.65-1.37,1.48-1.37,2.54,0,1.92,1.3,3.12,3.95,3.64.38.07.76.14,1.13.21s.76.14,1.13.24c.38.07.72.14,1.1.21.62.1,1.3.24,2.06.45.76.21,1.48.51,2.16.93s1.27.96,1.72,1.68c.45.69.69,1.61.69,2.75,0,1.34-.34,2.54-1.06,3.57-.69,1.03-1.68,1.89-2.95,2.47-1.27.62-2.75.93-4.46.93l.03.07Z"/>
    <path class="cls-1" d="M464.38,76.23c-1.13,0-2.09-.14-2.88-.45-.79-.31-1.37-.86-1.79-1.65s-.62-1.92-.62-3.36v-14.04h-3.84v-2.68h3.84v-5.15h3.12v5.15h6.63v2.68h-6.63v13.46c0,1.06.07,1.85.24,2.33.17.48.48.76,1,.86.48.1,1.24.17,2.27.17h2.75v2.68h-4.09Z"/>
    <path class="cls-1" d="M473.24,76.23v-4.6h4.57v4.6h-4.57Z"/>
    <path class="cls-1" d="M498.13,76.23v-1.72c0-2.61.38-4.74,1.17-6.42.79-1.68,1.85-3.05,3.23-4.15s2.95-2.03,4.74-2.85l2.95-1.34c1.99-.89,3.5-1.82,4.53-2.75,1.03-.93,1.51-2.23,1.51-3.88,0-1.06-.24-2.06-.69-2.99s-1.17-1.68-2.2-2.23c-1.03-.55-2.4-.86-4.12-.86s-3.09.34-4.19,1-1.89,1.51-2.44,2.57-.79,2.23-.79,3.47h-3.06c0-1.99.45-3.71,1.34-5.18.89-1.44,2.13-2.57,3.71-3.36s3.36-1.2,5.42-1.2c1.85,0,3.54.31,5.05.93s2.75,1.54,3.67,2.82c.93,1.27,1.37,2.92,1.37,4.91,0,2.23-.65,4.05-1.99,5.49-1.34,1.41-2.99,2.57-4.98,3.5l-4.84,2.23c-1.79.79-3.12,1.68-4.02,2.68-.89.96-1.51,2.03-1.82,3.12-.31,1.13-.48,2.3-.48,3.57h18.71v2.64h-21.83.03Z"/>
    <path class="cls-1" d="M537.91,76.78c-2.61,0-4.84-.65-6.66-1.96-1.82-1.3-3.16-3.19-4.09-5.6s-1.37-5.29-1.37-8.65.45-6.21,1.37-8.65c.93-2.4,2.3-4.29,4.09-5.6,1.82-1.3,4.02-1.96,6.66-1.96s4.87.65,6.66,1.96c1.79,1.3,3.16,3.19,4.09,5.6s1.37,5.29,1.37,8.65-.45,6.21-1.37,8.65c-.93,2.4-2.27,4.29-4.09,5.6-1.79,1.3-4.02,1.96-6.66,1.96ZM537.91,74.03c3.02,0,5.25-1.2,6.73-3.57s2.2-5.66,2.2-9.92-.72-7.48-2.2-9.85c-1.48-2.37-3.71-3.57-6.73-3.57s-5.25,1.2-6.73,3.57-2.2,5.66-2.2,9.85.72,7.55,2.2,9.92c1.48,2.37,3.71,3.57,6.73,3.57Z"/>
    <path class="cls-1" d="M556.31,76.23v-1.72c0-2.61.38-4.74,1.17-6.42.79-1.68,1.85-3.05,3.23-4.15s2.95-2.03,4.74-2.85l2.95-1.34c1.99-.89,3.5-1.82,4.53-2.75,1.03-.93,1.51-2.23,1.51-3.88,0-1.06-.24-2.06-.69-2.99s-1.17-1.68-2.2-2.23c-1.03-.55-2.4-.86-4.12-.86s-3.09.34-4.19,1-1.89,1.51-2.44,2.57-.79,2.23-.79,3.47h-3.06c0-1.99.45-3.71,1.34-5.18.89-1.44,2.13-2.57,3.71-3.36s3.36-1.2,5.42-1.2c1.85,0,3.54.31,5.05.93s2.75,1.54,3.67,2.82c.93,1.27,1.37,2.92,1.37,4.91,0,2.23-.65,4.05-1.99,5.49-1.34,1.41-2.99,2.57-4.98,3.5l-4.84,2.23c-1.79.79-3.12,1.68-4.02,2.68-.89.96-1.51,2.03-1.82,3.12-.31,1.13-.48,2.3-.48,3.57h18.71v2.64h-21.83.03Z"/>
    <path class="cls-1" d="M596.75,76.78c-2.33,0-4.29-.41-5.87-1.27s-2.88-1.99-3.84-3.4-1.65-3.02-2.09-4.77c-.41-1.79-.62-3.57-.62-5.42,0-3.43.48-6.45,1.44-9.1.96-2.61,2.37-4.67,4.22-6.18,1.85-1.48,4.12-2.23,6.8-2.23,1.92,0,3.57.38,4.94,1.13s2.51,1.79,3.3,3.05c.82,1.27,1.3,2.68,1.51,4.26h-2.92c-.31-1.82-1.06-3.23-2.27-4.22s-2.75-1.48-4.6-1.48c-2.85,0-5.18,1.3-6.93,3.88-1.75,2.61-2.61,6.66-2.61,12.22l-.31-.79c.41-1.06,1.06-2.09,1.96-3.02.89-.93,2.03-1.72,3.4-2.3s2.99-.89,4.84-.89,3.47.41,5.08,1.24c1.58.82,2.88,1.99,3.88,3.5s1.48,3.26,1.48,5.29c0,1.72-.41,3.36-1.27,4.98s-2.09,2.92-3.71,3.95c-1.61,1.03-3.54,1.54-5.8,1.54v.03ZM596.51,73.99c1.48,0,2.81-.34,4.02-1,1.17-.65,2.09-1.54,2.78-2.68s1-2.4,1-3.85-.34-2.85-1-3.95c-.69-1.13-1.58-1.99-2.78-2.61-1.17-.62-2.51-.93-4.02-.93-1.61,0-3.06.34-4.29,1.03s-2.23,1.61-2.92,2.75-1.06,2.4-1.06,3.74c0,1.44.34,2.71,1.06,3.81s1.68,1.99,2.92,2.68c1.27.65,2.68,1,4.29,1h0Z"/>
  </g>
  <g>
    <path class="cls-1" d="M451.34,737.1v-39.06h14.35c2.75,0,5.05.45,6.83,1.3,1.82.86,3.16,2.06,4.05,3.54.89,1.48,1.34,3.19,1.34,5.08,0,2.03-.45,3.67-1.3,5.01s-2.03,2.37-3.4,3.05c-1.41.72-2.88,1.13-4.43,1.27l.89-.55c1.68.03,3.19.48,4.6,1.37,1.41.86,2.51,2.03,3.36,3.47s1.27,3.05,1.27,4.84c0,1.96-.48,3.78-1.48,5.39-1,1.61-2.4,2.92-4.29,3.85-1.89.96-4.19,1.41-6.93,1.41h-14.83l-.03.03ZM456.35,715.06h8.86c2.4,0,4.29-.58,5.6-1.72,1.3-1.17,1.96-2.75,1.96-4.74s-.62-3.5-1.89-4.67-3.19-1.75-5.8-1.75h-8.72v12.87ZM456.35,732.92h9.27c2.61,0,4.6-.62,6.04-1.82,1.41-1.2,2.13-2.88,2.13-5.05s-.76-3.88-2.23-5.15-3.5-1.89-6.04-1.89h-9.17v13.9Z"/>
    <path class="cls-1" d="M484.63,737.1v-39.06h15.41c3.09,0,5.6.51,7.55,1.54s3.4,2.4,4.33,4.12c.93,1.72,1.41,3.71,1.41,5.87,0,1.96-.41,3.78-1.27,5.42s-2.16,3.02-3.91,4.05c1.79.89,3.09,2.16,3.88,3.78.79,1.61,1.27,3.54,1.41,5.77l.45,8.48h-4.98l-.45-8.03c-.1-1.85-.41-3.36-.96-4.53-.51-1.17-1.37-1.99-2.61-2.54-1.2-.55-2.88-.82-5.05-.82h-10.2v15.89h-5.01v.07ZM489.65,717.12h10.06c2.95,0,5.08-.69,6.45-2.09,1.37-1.41,2.03-3.19,2.03-5.42s-.65-4.05-1.99-5.39c-1.3-1.3-3.5-1.99-6.49-1.99h-10.06v14.9h0Z"/>
    <path class="cls-1" d="M518.21,737.1l14.38-39.06h5.36l14.38,39.06h-5.29l-12.87-35.98h2.23l-12.87,35.98h-5.32ZM524.9,727.18l1.41-4.02h17.95l1.41,4.02h-20.77Z"/>
    <path class="cls-1" d="M558.1,737.1v-39.06h5.01l20.46,30.76v-30.76h5.01v39.06h-5.01l-20.46-30.79v30.79h-5.01Z"/>
    <path class="cls-1" d="M596.51,737.1v-39.06h12.12c4.6,0,8.41.79,11.36,2.37s5.15,3.85,6.59,6.76c1.44,2.95,2.16,6.42,2.16,10.44s-.72,7.48-2.16,10.37c-1.44,2.92-3.64,5.15-6.59,6.73-2.95,1.58-6.73,2.37-11.36,2.37h-12.12v.03ZM601.52,732.88h6.97c3.71,0,6.66-.62,8.86-1.82,2.16-1.2,3.74-2.95,4.7-5.25s1.44-5.01,1.44-8.17-.48-5.9-1.44-8.2-2.54-4.08-4.7-5.32-5.11-1.85-8.86-1.85h-6.97v30.62Z"/>
  </g>
  <g>
    <path class="cls-1" d="M790.67,737.1v-39.06h13.04c3.06,0,5.56.51,7.55,1.51,1.99,1,3.47,2.37,4.43,4.08s1.44,3.71,1.44,5.87-.48,3.98-1.41,5.73-2.4,3.12-4.39,4.15c-1.96,1.03-4.53,1.58-7.66,1.58h-8.03v16.13h-5.01.03ZM795.68,716.82h7.93c3.02,0,5.18-.65,6.49-1.99,1.3-1.3,1.96-3.09,1.96-5.29,0-2.33-.65-4.15-1.96-5.42s-3.47-1.89-6.49-1.89h-7.93v14.59Z"/>
    <path class="cls-1" d="M837.32,737.79c-2.71,0-5.18-.55-7.38-1.61-2.2-1.06-3.95-2.75-5.25-4.98-1.3-2.27-1.96-5.11-1.96-8.55v-24.54h5.01v24.61c0,3.71.89,6.42,2.64,8.1,1.75,1.68,4.09,2.51,7,2.51s5.18-.82,6.93-2.51c1.75-1.68,2.61-4.36,2.61-8.1v-24.61h5.01v24.54c0,3.47-.65,6.32-1.99,8.55-1.3,2.27-3.09,3.91-5.29,4.98s-4.67,1.61-7.38,1.61h.03Z"/>
    <path class="cls-1" d="M858.91,737.1v-39.06h14.35c2.75,0,5.05.45,6.83,1.3,1.82.86,3.16,2.06,4.05,3.54.89,1.48,1.34,3.19,1.34,5.08,0,2.03-.45,3.67-1.3,5.01s-2.03,2.37-3.4,3.05c-1.41.72-2.88,1.13-4.43,1.27l.89-.55c1.68.03,3.19.48,4.6,1.37,1.41.86,2.51,2.03,3.36,3.47s1.27,3.05,1.27,4.84c0,1.96-.48,3.78-1.48,5.39-1,1.61-2.4,2.92-4.29,3.85-1.89.96-4.19,1.41-6.93,1.41h-14.83l-.03.03ZM863.92,715.06h8.86c2.4,0,4.29-.58,5.6-1.72,1.3-1.17,1.96-2.75,1.96-4.74s-.62-3.5-1.89-4.67-3.19-1.75-5.8-1.75h-8.72v12.87ZM863.92,732.92h9.27c2.61,0,4.6-.62,6.04-1.82,1.41-1.2,2.13-2.88,2.13-5.05s-.76-3.88-2.23-5.15-3.5-1.89-6.04-1.89h-9.17v13.9Z"/>
    <path class="cls-1" d="M892.21,737.1v-39.06h5.01v35.05h18.09v4.02h-23.1,0Z"/>
    <path class="cls-1" d="M921.45,737.1v-39.06h5.01v39.06h-5.01Z"/>
    <path class="cls-1" d="M951.08,737.79c-3.84,0-7.14-.86-9.92-2.54-2.78-1.68-4.94-4.05-6.49-7.07-1.51-3.02-2.3-6.56-2.3-10.57s.76-7.48,2.3-10.54c1.51-3.05,3.67-5.42,6.49-7.11,2.78-1.68,6.11-2.54,9.92-2.54,4.53,0,8.2,1.06,11.02,3.23,2.81,2.16,4.6,5.18,5.39,9.1h-5.6c-.55-2.37-1.75-4.29-3.54-5.73-1.82-1.44-4.26-2.16-7.35-2.16-2.71,0-5.08.62-7.11,1.89s-3.6,3.05-4.7,5.42c-1.13,2.33-1.68,5.15-1.68,8.41s.55,6.08,1.68,8.44c1.1,2.37,2.68,4.15,4.7,5.42,2.03,1.24,4.39,1.85,7.11,1.85,3.09,0,5.53-.69,7.38-2.06,1.82-1.37,3.06-3.36,3.67-5.97h5.53c-.82,4.02-2.64,7.11-5.46,9.27s-6.52,3.23-11.05,3.23v.04Z"/>
    <path class="cls-1" d="M973.84,737.1v-39.06h5.01v39.06h-5.01Z"/>
    <path class="cls-1" d="M996.77,737.1v-34.91h-11.6v-4.12h28.22v4.12h-11.6v34.91h-5.01Z"/>
    <path class="cls-1" d="M1031.06,737.1v-14.73l-13.22-24.34h5.7l10.98,21.35h-1.89l10.98-21.35h5.6l-13.11,24.34v14.73h-5.05Z"/>
  </g>
  <g>
    <path class="cls-1" d="M30.82,737.1v-39.06h12.12c4.6,0,8.41.79,11.36,2.37s5.15,3.85,6.59,6.76c1.44,2.95,2.16,6.42,2.16,10.44s-.72,7.48-2.16,10.37c-1.44,2.92-3.64,5.15-6.59,6.73s-6.73,2.37-11.36,2.37h-12.12v.03ZM35.83,732.88h6.97c3.71,0,6.66-.62,8.86-1.82,2.16-1.2,3.74-2.95,4.7-5.25s1.44-5.01,1.44-8.17-.48-5.9-1.44-8.2-2.54-4.08-4.7-5.32c-2.16-1.24-5.11-1.85-8.86-1.85h-6.97v30.62Z"/>
    <path class="cls-1" d="M68.58,737.1v-39.06h24.34v4.12h-19.29v13.22h17.64v4.02h-17.64v13.56h19.29v4.12h-24.34v.03Z"/>
    <path class="cls-1" d="M111.87,737.79c-1.96,0-3.84-.27-5.63-.79s-3.4-1.3-4.81-2.33c-1.41-1.03-2.54-2.37-3.43-3.98-.86-1.61-1.37-3.54-1.48-5.73h4.91c.17,2.03.76,3.64,1.72,4.87.96,1.24,2.23,2.16,3.78,2.75,1.54.58,3.19.86,4.98.86,1.68,0,3.23-.24,4.63-.72s2.54-1.27,3.36-2.3,1.27-2.44,1.27-4.08c0-1.44-.41-2.75-1.27-3.85-.82-1.13-2.37-1.89-4.6-2.3l-7.83-1.44c-2.81-.51-5.11-1.68-6.87-3.5s-2.61-3.98-2.61-6.56c0-2.37.62-4.39,1.85-6.08s2.92-2.95,4.98-3.85c2.06-.89,4.29-1.34,6.66-1.34,2.54,0,4.81.45,6.8,1.3,2.03.86,3.64,2.16,4.87,3.91,1.24,1.72,1.99,3.88,2.2,6.45h-4.98c-.17-1.72-.69-3.09-1.48-4.15s-1.82-1.85-3.09-2.37-2.71-.79-4.29-.79-2.99.24-4.29.72-2.37,1.2-3.19,2.16c-.82.96-1.24,2.2-1.24,3.67s.55,2.82,1.68,3.81c1.1,1.03,2.61,1.72,4.46,2.09l7.38,1.34c3.16.58,5.56,1.79,7.21,3.57,1.65,1.79,2.47,4.08,2.47,6.93,0,2.03-.41,3.74-1.2,5.18-.79,1.44-1.85,2.64-3.19,3.64-1.34.96-2.85,1.68-4.53,2.16s-3.47.72-5.29.72h.07Z"/>
    <path class="cls-1" d="M132.57,737.1v-39.06h5.01v39.06h-5.01Z"/>
    <path class="cls-1" d="M163.02,737.79c-4.02,0-7.48-.82-10.4-2.51s-5.18-4.02-6.76-7-2.37-6.45-2.37-10.33.79-7.62,2.33-10.71c1.58-3.09,3.78-5.49,6.63-7.21,2.85-1.72,6.21-2.61,10.13-2.61,4.39,0,8.07,1.06,10.98,3.19,2.95,2.13,4.84,5.05,5.7,8.82h-5.73c-.55-2.27-1.79-4.05-3.64-5.39-1.89-1.3-4.29-1.99-7.28-1.99s-5.32.62-7.38,1.89c-2.06,1.27-3.67,3.09-4.84,5.49-1.17,2.4-1.72,5.25-1.72,8.55s.58,5.87,1.79,8.17,2.85,4.05,4.98,5.29,4.67,1.85,7.55,1.85c3.84,0,6.87-1.13,9.06-3.43s3.36-5.49,3.5-9.61h-11.98v-4.12h16.96v1.96c0,4.26-.72,7.83-2.2,10.74-1.48,2.92-3.5,5.15-6.14,6.66-2.61,1.51-5.66,2.3-9.13,2.3h-.03Z"/>
    <path class="cls-1" d="M186.53,737.1v-39.06h5.01l20.46,30.76v-30.76h5.01v39.06h-5.01l-20.46-30.79v30.79h-5.01Z"/>
  </g>
</svg>